<svg width="89" height="45" viewBox="0 0 89 45" fill="none" xmlns="http://www.w3.org/2000/svg">
<path d="M87.4579 0.31246C87.2514 0.516233 85.7373 1.73887 84.0683 3.02265C79.5604 6.50718 75.7235 9.50265 75.4826 9.74718C75.0008 10.2362 74.2266 10.8883 72.4027 12.3351C69.753 14.434 68.3077 15.7177 68.3077 15.9623C68.3077 16.0642 68.0152 16.3902 67.6711 16.6755C67.327 16.9608 66.9657 17.2868 66.8624 17.3887C66.7592 17.5109 66.243 17.9593 65.7269 18.4076C65.2107 18.8559 64.7461 19.2634 64.6945 19.3245C64.6429 19.3857 64.2988 19.7117 63.9202 20.0581C63.5417 20.3842 63.0772 20.8121 62.8879 20.9955C62.6986 21.1789 61.9416 21.8921 61.2189 22.5849C60.3414 23.3796 59.8769 23.9502 59.8769 24.2151C59.8769 24.7449 60.0833 24.7245 60.4963 24.1947C60.6683 23.9502 61.1157 23.5426 61.477 23.2777C61.8211 22.9925 62.1136 22.6664 62.1136 22.5034C62.1136 22.3608 62.4749 21.8513 62.9051 21.3623C63.4729 20.7509 63.7826 20.5472 64.0407 20.6083C64.2816 20.6898 64.6429 20.486 65.1935 19.9155C66.2602 18.8355 68.4626 17.083 68.7551 17.083C69.2369 17.083 68.9788 17.8166 68.1873 18.6725C67.7227 19.1615 67.5335 19.4468 67.7399 19.3449C67.9464 19.2226 68.2045 18.9985 68.3422 18.8559C68.4626 18.7132 68.996 18.2445 69.5122 17.7962C70.0283 17.3479 70.5617 16.8793 70.6822 16.7366C70.8026 16.594 70.9747 16.4717 71.0435 16.4717C71.1123 16.4717 71.3188 16.3087 71.508 16.1049C71.6801 15.9215 72.2479 15.4936 72.7641 15.1879C73.263 14.8619 73.762 14.5155 73.8825 14.4136C74.6395 13.6596 75.7407 12.9872 76.0504 13.1094C76.2397 13.1706 76.3945 13.3132 76.3945 13.4151C76.3945 13.517 76.0848 14.2506 75.7235 15.0657L75.0525 16.5328L75.431 17.1645C75.6547 17.5109 76.016 18.1834 76.2397 18.6725C76.6354 19.5487 77.1688 19.8951 77.685 19.6506C77.9086 19.5691 77.9258 19.4468 77.771 19.1208C77.3925 18.2853 78.1323 15.6974 79.3367 13.5985C80.6788 11.2551 86.4772 4.10265 88.473 2.35019C89.1785 1.73887 89.1785 1.49435 88.4558 0.53661C87.9569 -0.135843 87.9053 -0.135843 87.4579 0.31246ZM70.4413 16.0438C70.5789 16.2883 69.7702 17.2868 69.4261 17.2868C68.9788 17.2868 69.1336 16.5125 69.6498 16.1864C70.2004 15.8196 70.3208 15.7993 70.4413 16.0438Z" fill="#383838"/>
<path d="M55.2485 7.0981C53.115 8.78942 51.2911 10.1547 51.1707 10.1547C51.0502 10.1547 50.9298 10.2362 50.8954 10.3177C50.8782 10.4196 50.0695 11.0921 49.1232 11.8256C48.1769 12.5592 46.9036 13.6189 46.2842 14.169C45.6648 14.6989 44.512 15.6566 43.7033 16.2679C42.8946 16.8792 42.2064 17.4294 42.1548 17.4906C42.1032 17.5517 41.4666 18.1223 40.7439 18.7947C40.0041 19.4468 39.4018 20.0377 39.4018 20.1192C39.4018 20.2007 39.0405 20.5879 38.5932 20.9547C38.1286 21.3419 37.7329 21.7087 37.6813 21.7698C37.6296 21.8309 37.2855 22.157 36.907 22.483C36.5285 22.8294 36.1843 23.1351 36.1327 23.1962C36.0811 23.2573 35.737 23.563 35.3585 23.9094C34.3949 24.7449 33.9648 25.2339 34.1885 25.2339C34.2917 25.2339 34.4638 25.0913 34.6014 24.9079C34.7218 24.7245 34.9627 24.643 35.1864 24.7041C35.5477 24.806 35.7542 24.6838 36.7349 23.6445C37.3715 22.9721 38.8513 21.7698 39.0233 21.7698C39.1266 21.7698 39.2298 21.6883 39.2642 21.5864C39.2986 21.5049 39.4879 21.3419 39.7116 21.2807C40.331 21.0362 40.1933 21.7902 39.4707 22.5441C38.4039 23.6649 39.161 23.2573 40.6407 21.9124C41.4321 21.1992 42.5677 20.2619 43.1871 19.8339C43.8066 19.406 44.4948 18.8966 44.7185 18.7336C46.8004 17.083 47.4886 16.757 47.4886 17.3887C47.4886 17.5517 47.2133 18.3464 46.8692 19.1207L46.2498 20.5472L46.7488 21.5253C47.0069 22.0551 47.2994 22.6664 47.4026 22.8906C47.6607 23.4611 48.7274 24.2762 48.8651 24.0113C48.9339 23.889 48.9511 23.3185 48.8995 22.7683C48.8479 22.0958 48.9167 21.4438 49.1232 20.7917C49.5705 19.3856 50.1039 18.1019 50.276 18.1019C50.3448 18.1019 50.4136 18 50.4136 17.8777C50.4136 17.5517 51.2223 16.329 52.5816 14.6377C53.2526 13.8023 54.1473 12.6407 54.5602 12.0906C54.9732 11.52 55.6958 10.6641 56.1604 10.1547C56.625 9.64527 57.3304 8.87093 57.7261 8.42263C58.6208 7.40376 59.2058 6.81282 59.7908 6.36452C60.3414 5.93659 60.2726 5.34565 59.6016 4.55093C59.3607 4.26565 59.1542 4.0415 59.137 4.0415C59.1198 4.0415 57.3648 5.42716 55.2485 7.0981ZM41.5698 20.1804C41.7418 20.486 40.8471 21.3826 40.5202 21.24C40.1589 21.077 40.1933 20.8324 40.6407 20.3434C41.0708 19.8747 41.3805 19.8136 41.5698 20.1804Z" fill="#383838"/>
<path d="M27.0652 8.25962C26.9448 8.30038 26.8415 8.4634 26.8415 8.58566C26.8415 8.72831 26.6867 9.05434 26.4974 9.33963C26.3081 9.62491 26.1533 10.0121 26.1533 10.2159C26.1533 10.3993 25.6543 11.5608 25.0349 12.7834C24.4155 13.9857 23.9165 15.1064 23.9165 15.2491C23.9165 15.5547 23.1939 17.1645 23.0218 17.246C22.9358 17.2868 22.8842 17.4091 22.8842 17.5313C22.8842 17.837 20.7678 22.8702 20.613 22.9517C20.527 22.9925 20.4753 23.1351 20.4753 23.2574C20.4753 23.563 19.2365 27.1291 19.0817 27.2717C18.7031 27.5977 17.9633 28.2294 16.518 29.4317C15.6233 30.1857 14.7974 30.9192 14.6942 31.0619C14.6081 31.2045 13.5586 32.0808 12.3714 33.0181C10.1174 34.8317 8.82695 35.8913 8.48284 36.2377C8.3624 36.3396 8.20754 36.4415 8.10431 36.4415C8.01828 36.4415 7.91504 36.5026 7.88063 36.5842C7.81181 36.7879 6.00519 38.2551 5.12769 38.8257C4.74916 39.0702 4.07813 39.3351 3.63077 39.3962C1.9446 39.6815 1.6693 39.8445 1.0843 40.9245C0.774595 41.4747 0.516506 42.0249 0.516506 42.1268C0.516506 42.2287 0.396065 42.4121 0.258418 42.5547C-0.137318 42.9419 -0.0684942 43.7162 0.396065 43.8996C0.602536 43.9811 0.998271 44.246 1.25636 44.5109C1.53165 44.7758 1.91018 45 2.13386 45C2.46077 45 3.21783 44.5313 3.44151 44.1645C3.6996 43.757 8.98181 39.0906 9.18828 39.0906C9.22269 39.0906 9.46357 38.8664 9.73887 38.5811C10.0142 38.3162 11.0465 37.3381 12.0273 36.4211C14.35 34.2611 14.7974 33.7925 14.7974 33.446C14.7974 33.3034 14.935 33.0996 15.1071 33.0385C15.4512 32.8959 16.2599 31.9381 16.3803 31.5509C16.4836 31.1434 17.2062 31.5102 17.2062 31.9992C17.2062 32.2234 17.017 33.1608 16.7933 34.0777C16.0534 36.9713 15.9158 38.5608 16.3287 39.4574C16.518 39.8853 16.8621 39.9057 18.2214 39.5796C18.7548 39.437 22.5573 34.9132 22.454 34.5668C22.4024 34.4242 22.7637 33.7925 23.2455 33.1811C23.7101 32.5698 24.2606 31.8566 24.4327 31.6325C24.622 31.3879 24.7768 31.123 24.7768 31.0619C24.7768 30.9804 24.9489 30.6951 25.1726 30.4302C25.379 30.1653 25.6543 29.7781 25.792 29.5743C25.9296 29.3706 26.3081 28.8611 26.6523 28.4128L27.2717 27.6385L26.4114 28.3517C25.9468 28.7592 25.3274 29.3298 25.0521 29.6151C24.7768 29.9004 24.5015 30.1245 24.4499 30.1245C24.3983 30.1245 23.9854 30.5117 23.5552 31.0008C21.5593 33.2015 21.1808 33.5887 21.0087 33.5887C20.9227 33.5887 20.8195 33.6702 20.7851 33.7517C20.6818 34.0574 19.4946 35.0151 19.2193 35.0151C19.0473 35.0151 18.9268 35.0966 18.9268 35.2189C18.9268 35.3208 18.772 35.4226 18.5827 35.4226C18.1009 35.4226 18.1526 34.9947 18.7548 34.0981C19.1677 33.4868 19.2537 33.1811 19.1849 32.7328C19.0989 32.3457 19.1677 32.0604 19.4086 31.7547C19.7355 31.3472 20.0968 30.5525 20.4409 29.5132C21.0259 27.6996 21.8518 26.0491 22.1615 26.0491C22.2648 26.0491 22.368 25.9472 22.368 25.8453C22.368 25.723 22.4712 25.6415 22.5917 25.6415C22.867 25.6211 23.452 25.0302 23.8133 24.3577C23.9854 24.0521 24.2606 23.8075 24.4155 23.8075C24.5704 23.8075 24.7768 23.6445 24.8973 23.4204C25.0005 23.2166 25.8952 22.4219 26.8759 21.6475C27.8567 20.8732 28.6826 20.1804 28.6998 20.0989C28.7342 19.997 28.8374 19.9359 28.9406 19.9359C29.0267 19.9359 29.2159 19.8136 29.3364 19.6709C29.8181 19.1819 30.0418 18.9781 31.229 18.0408C31.9001 17.5109 33.0184 16.594 33.7239 15.9623C35.5821 14.3525 37.0102 13.2113 37.1823 13.2113C37.2683 13.2113 37.3371 13.1502 37.3371 13.0483C37.3371 12.9668 37.8361 12.4981 38.4555 12.0091C39.0749 11.52 39.5739 11.0921 39.5739 11.0309C39.5739 10.9291 37.8017 12.0294 37.6812 12.2128C37.6296 12.2943 37.3199 12.5185 36.993 12.7223C36.6661 12.9464 36.0295 13.4151 35.5821 13.7819C35.1348 14.1283 34.739 14.434 34.7046 14.434C34.6014 14.434 26.8759 20.2211 25.1554 21.5864C24.0886 22.4423 23.2283 22.8498 23.2283 22.483C23.2283 22.4219 23.6584 21.4438 24.1746 20.3026C24.6908 19.1819 25.1209 18.163 25.1209 18.0815C25.1209 17.9796 25.6715 16.7774 26.3426 15.4121C27.0136 14.0264 27.7706 12.4981 28.0115 11.9887C28.2696 11.4792 28.5965 10.8883 28.7686 10.6845C28.9406 10.4604 29.0783 10.2159 29.0783 10.114C29.0783 9.86944 27.6158 8.11699 27.4265 8.13736C27.3405 8.13736 27.1684 8.19849 27.0652 8.25962Z" fill="#383838"/>
<path d="M40.2621 10.3585C40.2621 10.4604 40.3826 10.5011 40.5202 10.44C40.6579 10.3585 40.7783 10.277 40.7783 10.2362C40.7783 10.1955 40.6579 10.1547 40.5202 10.1547C40.3826 10.1547 40.2621 10.2362 40.2621 10.3585Z" fill="#383838"/>
<path d="M66.071 20.5472C65.8301 20.7713 65.7269 20.9547 65.8301 20.9547C65.9505 20.9547 66.2086 20.7713 66.4323 20.5472C66.9657 20.0377 66.6388 20.0174 66.071 20.5472Z" fill="#383838"/>
<path d="M80.5239 22.8702C80.4723 22.911 79.8529 23.0129 79.1475 23.074C78.442 23.1351 77.3237 23.3389 76.6526 23.5019C74.3986 24.0929 72.5404 24.6431 72.007 24.908C71.7145 25.0506 70.4757 25.4785 69.2369 25.8453C68.0153 26.1917 66.9485 26.5789 66.8453 26.7012C66.7248 26.8438 66.8108 26.8846 67.1033 26.8031C67.9464 26.5789 71.6801 25.8861 72.0931 25.8861C72.3339 25.8657 72.9361 25.8046 73.4351 25.7231C74.1922 25.6008 74.3298 25.6415 74.3298 25.9268C74.3298 26.3344 74.6567 26.3548 75.1557 25.9268C75.3622 25.7638 75.6891 25.6619 75.8784 25.7434C76.0504 25.8046 76.4978 25.6823 76.8591 25.4785C77.6334 25.0098 78.6657 24.8061 78.9754 25.0302C79.2851 25.2544 79.0614 25.8453 78.6657 25.8453C78.4937 25.8453 78.2872 25.9065 78.2184 25.988C78.1495 26.0695 77.7022 26.3548 77.2032 26.5993C76.3773 27.0476 76.3601 27.068 76.9107 26.9865C77.2376 26.9457 78.0979 26.6604 78.8034 26.3751C79.5088 26.0695 80.111 25.8453 80.1454 25.8453C80.1626 25.8453 80.4723 25.7027 80.8164 25.5397C81.1606 25.3563 81.6251 25.1729 81.8488 25.1117C82.0725 25.0302 82.2962 24.908 82.3478 24.8061C82.5198 24.48 82.2445 23.5019 81.9348 23.2574C81.5735 23.0129 80.6272 22.7276 80.5239 22.8702Z" fill="#383838"/>
<path d="M37.4232 24.5412C37.0963 24.8468 37.0446 24.9691 37.2683 24.8468C37.578 24.6634 38.163 24.0113 38.0082 24.0113C37.9738 24.0113 37.7157 24.2559 37.4232 24.5412Z" fill="#383838"/>
<path d="M33.3798 25.6619C33.1389 25.886 32.8292 26.1713 32.6915 26.314C32.5539 26.4566 32.1065 26.8642 31.6936 27.231C31.1946 27.6996 30.9709 28.0664 30.9709 28.4128V28.9223L31.4527 28.3925C31.7108 28.1072 32.2098 27.6589 32.5711 27.4347C32.9152 27.1902 33.2077 26.8642 33.2077 26.6808C33.2077 26.5177 33.3798 26.1713 33.5862 25.9064C34.068 25.2951 33.9304 25.1525 33.3798 25.6619Z" fill="#383838"/>
<path d="M48.7791 27.4144C46.3874 27.9645 44.2883 28.5759 43.0151 29.0445C42.3096 29.3094 41.4838 29.6151 41.1913 29.717C40.8988 29.8393 40.5546 29.9208 40.4342 29.9208C40.2966 29.9208 39.6255 30.1245 38.9373 30.3691C38.077 30.6747 37.6813 30.9193 37.6813 31.123C37.6813 31.3268 37.7329 31.3676 37.8189 31.2249C37.9565 30.9804 38.9889 30.6951 41.8107 30.1245C44.2023 29.6355 44.598 29.6151 45.3551 30.043C45.8713 30.3283 45.9573 30.3283 46.3014 30.0634C46.5079 29.88 46.7832 29.7985 46.9036 29.8596C47.0413 29.9208 47.5402 29.7781 48.0048 29.5336C49.0027 29.0242 50.2416 28.9427 50.2416 29.4113C50.2416 29.7374 49.6566 30.1449 48.607 30.5321C47.7639 30.8377 47.523 31.0619 47.7811 31.3676C47.9016 31.5102 48.0392 31.4898 48.2285 31.2657C48.3833 31.0823 48.607 30.9396 48.7446 30.9396C48.9683 30.9396 49.7942 30.5932 50.6717 30.1245C50.861 30.0227 51.5836 29.7374 52.2547 29.4928C53.0805 29.1872 53.5451 28.9019 53.6139 28.6574C53.7172 28.2091 53.201 27.3328 52.7364 27.1902C52.1514 26.9864 50.0351 27.1087 48.7791 27.4144Z" fill="#383838"/>
<path d="M55.0592 28.9223C54.3538 29.7781 53.6483 30.5321 53.4935 30.5932C53.2182 30.6747 51.7901 33.8332 51.7901 34.3223C51.7901 34.7502 52.7708 35.6264 53.5451 35.9117C54.8011 36.3396 56.6938 35.8302 61.4254 33.7925C62.5094 33.3238 63.7998 32.7736 64.2644 32.5698C64.7461 32.3661 65.5032 32.0197 65.9333 31.7751C66.3807 31.551 66.8108 31.3472 66.9141 31.3472C67.0001 31.3472 67.1033 31.2657 67.1378 31.1638C67.1722 31.0619 68.1529 30.5932 69.3401 30.1246C70.5273 29.6559 71.5597 29.1872 71.6629 29.0853C71.7489 28.9834 72.0242 28.9019 72.2651 28.9019C72.506 28.9019 72.7813 28.8204 72.8673 28.7185C72.9706 28.6166 73.4523 28.3925 73.9341 28.1887C74.4331 28.0053 74.8804 27.7608 74.932 27.6589C75.0009 27.557 75.2073 27.4755 75.4138 27.4551C75.6375 27.4551 75.6891 27.394 75.5686 27.3329C75.345 27.231 75.0009 27.3736 74.1234 27.9034C73.9513 28.0053 73.59 28.0868 73.3147 28.0868C73.0566 28.0868 72.2995 28.3925 71.6457 28.7797C70.9919 29.1668 70.2348 29.554 69.9423 29.6355C69.667 29.717 69.3573 29.8393 69.2541 29.9208C69.168 30.0023 68.9272 30.0023 68.7379 29.9208C68.5486 29.8393 68.2733 29.8393 68.1357 29.9208C67.0345 30.5729 66.9141 30.5932 66.7248 30.3691C66.6044 30.2264 66.4323 30.1246 66.3463 30.1246C66.243 30.1246 66.2603 30.2061 66.3807 30.308C66.5872 30.4506 66.5872 30.5525 66.3979 30.9193C66.1742 31.3268 64.815 32.0197 64.6257 31.8159C64.5741 31.7547 64.316 31.8974 64.0407 32.1419C63.3008 32.7736 62.3717 32.6717 62.8191 32.0197C62.9739 31.8159 62.9567 31.7547 62.7847 31.7547C62.5266 31.7547 60.6167 32.3457 58.7585 32.9774C55.0936 34.2408 54.0269 34.4446 54.0269 33.8944C54.0269 33.4664 53.8204 33.5072 53.4591 33.9963C53.0977 34.5057 52.8224 34.363 52.8224 33.6702C52.8224 33.12 53.5795 31.551 53.8548 31.551C53.958 31.551 54.0269 31.4287 54.0269 31.2657C54.0269 31.1027 54.6635 30.2876 55.4377 29.4317C56.6249 28.1072 56.8142 27.8219 56.5905 27.6181C56.3841 27.394 56.1432 27.5978 55.0592 28.9223Z" fill="#383838"/>
<path d="M64.7461 27.4143C64.901 27.4551 65.1419 27.4551 65.2623 27.4143C65.3655 27.3532 65.2451 27.3124 64.9526 27.3124C64.6773 27.3124 64.5741 27.3532 64.7461 27.4143Z" fill="#383838"/>
<path d="M57.8982 28.4944C57.5885 28.8815 57.6057 28.9019 57.9498 28.9019C58.2079 28.9019 58.2939 28.7797 58.2767 28.4944C58.2595 28.2702 58.2423 28.0868 58.2251 28.0868C58.2251 28.0868 58.0702 28.2702 57.8982 28.4944Z" fill="#383838"/>
<path d="M60.1349 28.6981L59.7908 28.8815H60.1349C60.3242 28.8815 60.5995 28.8 60.7371 28.6981C60.9608 28.5147 60.9608 28.4943 60.7371 28.5147C60.5995 28.5147 60.3242 28.5962 60.1349 28.6981Z" fill="#383838"/>
<path d="M47.3166 31.123C47.3166 31.2249 47.1789 31.3675 47.0241 31.4083C46.8348 31.4694 46.8864 31.5102 47.1789 31.5306C47.523 31.5509 47.6263 31.4694 47.5574 31.2453C47.437 30.8989 47.3166 30.8377 47.3166 31.123Z" fill="#383838"/>
<path d="M26.2393 33.2015C25.5683 33.9759 24.8457 34.7298 24.622 34.8725C24.1574 35.1374 23.3143 36.9306 23.1251 38.031C22.9874 38.8664 23.3832 39.4166 24.3811 39.8242C25.3962 40.2521 26.6351 40.1706 28.4933 39.5185C30.4376 38.846 33.7927 37.4604 34.3777 37.0732C34.6014 36.9306 35.1864 36.686 35.6682 36.5026C36.1671 36.3396 36.6489 36.1359 36.7349 36.034C36.8382 35.9525 37.8533 35.5042 39.0233 35.0151C40.1761 34.5464 41.1224 34.1185 41.1224 34.0777C41.1224 33.9555 39.3158 34.2204 38.9717 34.4038C38.5243 34.6279 38.1458 34.7502 37.9565 34.7706C37.8705 34.7706 37.7501 34.8725 37.6985 34.9743C37.5436 35.2596 36.5457 35.8302 36.1843 35.8302C36.0123 35.8302 35.4961 36.0543 35.0315 36.3396C33.982 36.9713 33.896 36.9713 33.896 36.3396C33.896 36.0543 33.8615 35.8302 33.8271 35.8302C33.7927 35.8302 33.1561 36.0136 32.4162 36.2581C31.6592 36.4823 30.7817 36.7472 30.4548 36.8287C30.1279 36.9306 29.388 37.1751 28.8202 37.4196C27.633 37.8883 26.1533 38.2755 25.5511 38.2755C25.2242 38.2755 25.1209 38.1736 25.1209 37.8476C25.1209 37.4196 25.1037 37.4196 24.6908 37.9494C23.8305 39.0498 23.624 37.8883 24.4155 36.4619C24.9145 35.5857 27.0824 32.9774 27.3233 32.9774C27.5298 32.9774 27.8911 32.1623 27.7879 31.9585C27.5986 31.6121 27.4609 31.7343 26.2393 33.2015Z" fill="#383838"/>
<path d="M45.596 31.9585C45.1314 32.2641 44.6496 32.4272 44.3227 32.3864C44.013 32.3253 43.2043 32.7125 43.0151 32.9977C42.9635 33.0792 42.5849 33.2626 42.172 33.4257C41.7418 33.6091 41.5354 33.7721 41.673 33.8332C41.8107 33.8943 42.2236 33.7925 42.6021 33.5683C42.9635 33.3645 43.3936 33.1811 43.5313 33.1811C43.9442 33.1608 46.5767 31.7751 46.1982 31.7751C46.0089 31.7751 45.7336 31.8566 45.596 31.9585Z" fill="#383838"/>
<path d="M28.8546 32.9774C28.5277 33.446 28.5449 33.4664 29.1643 33.1811C29.4052 33.0792 29.5601 32.8959 29.5085 32.7736C29.3536 32.4679 29.1815 32.5291 28.8546 32.9774Z" fill="#383838"/>
<path d="M31.8312 32.7328C31.5904 32.7736 31.3323 32.8958 31.229 32.9977C31.1258 33.1404 31.3323 33.1607 31.8312 33.0588C32.2614 32.9773 32.6227 32.8958 32.6571 32.8755C32.7776 32.7532 32.227 32.6513 31.8312 32.7328Z" fill="#383838"/>
</svg>
