<svg width="60" height="60" viewBox="0 0 60 60" fill="none" xmlns="http://www.w3.org/2000/svg">
<path d="M50.2879 7.16052C49.7977 7.70373 48.7704 8.22225 46.6693 8.98768C45.0817 9.58028 42.4202 10.6914 40.7393 11.4568C39.0817 12.2469 36.3969 13.4321 34.786 14.0988C33.1751 14.7655 31.6576 15.4321 31.4008 15.5556C31.144 15.679 30.0467 16.1976 28.9494 16.7161C26.0778 18.0988 24.4436 19.0124 24.607 19.1852C24.677 19.284 24.9805 19.2346 25.284 19.0864C25.5642 18.9383 26.2646 18.642 26.8482 18.3951C27.4319 18.1729 28.2257 17.8272 28.5992 17.6544C28.9961 17.4568 29.5564 17.2593 29.8833 17.1605C31.3541 16.7902 32.4747 16.4198 34.3191 15.6544C35.4163 15.2099 36.8405 14.7902 37.4708 14.6914C38.1245 14.5926 38.9416 14.4198 39.2918 14.2716C39.7588 14.0741 40.0156 14.0741 40.2023 14.2716C40.5992 14.6914 40.1323 15.1358 38.4047 16.0494C36.7704 16.9136 36 17.6297 36.4202 17.9013C36.7471 18.1235 36.2802 18.7655 35.7899 18.7655C35.4864 18.7655 35.4864 18.6914 35.7198 18.3951C36.2335 17.7531 35.1362 17.9506 34.3658 18.642C33.9689 18.9877 33.572 19.2593 33.4319 19.2593C33.1051 19.2593 30.4202 20.8889 29.4397 21.6544C28.9961 22.0247 28.4825 22.7161 28.2957 23.2593C27.9689 24.1235 27.3152 24.5679 27.3152 23.926C27.3152 23.7531 27.035 23.7037 26.5447 23.8025L25.7743 23.9506L24.607 21.4815C23.9767 20.1235 23.2529 18.5926 23.0195 18.0741C21.3619 14.642 20.7549 9.5062 22.0623 10.0247C22.3191 10.1235 22.2023 9.75312 21.7121 8.6667C20.8249 6.76546 20.4047 6.71608 19.144 8.41978C18.2568 9.60497 18.2101 9.77781 18.2101 11.3334C18.2101 14.1482 18.7938 16.8395 19.9611 19.2346C20.2646 19.9013 20.6381 20.9383 20.8016 21.5803C20.9416 22.1976 21.1518 22.7161 21.2451 22.7161C21.3385 22.7161 21.5953 23.2346 21.8288 23.8519L22.2257 24.9877L21.4553 25.8519C21.0117 26.321 19.4241 27.3581 17.8132 28.2223C16.2257 29.0618 14.0778 30.2223 13.0272 30.7902C10.1323 32.3457 6.79378 33.4321 5.36965 33.284C4.7393 33.2099 4.10895 33.284 3.96887 33.4321C3.71206 33.7037 3.66537 35.5556 3.87549 36.7408C3.99222 37.3827 4.1323 37.4815 4.92607 37.605C5.43969 37.679 6.02335 37.8766 6.23347 38.0494C6.70039 38.4692 7.79767 38.3704 9.01168 37.7778C9.54864 37.5062 10.2957 37.2346 10.6459 37.1358C11.0195 37.0371 11.4397 36.8642 11.5798 36.7408C11.9533 36.4445 14.8249 34.9877 16.3424 34.3704C17.2529 33.9753 17.9533 33.4321 18.7704 32.4692C19.4008 31.7284 20.0545 31.1111 20.2646 31.1111C20.6148 31.1111 23.3463 29.2593 23.6031 28.8148C24.07 28.0988 25.1907 29.3581 27.2218 32.9136C27.6187 33.605 28.179 34.3457 28.4591 34.5926C28.716 34.8148 28.9494 35.1358 28.9494 35.2593C28.9494 35.7531 30.3969 36.8148 30.8405 36.6667C31.0973 36.5679 31.284 36.6173 31.284 36.7655C31.284 36.8889 31.4942 37.0864 31.751 37.1605C32.0545 37.2593 32.2179 37.5309 32.2179 37.9506C32.2179 38.4198 32.3113 38.5432 32.5914 38.4198C32.9883 38.2469 34.3191 39.5556 34.3191 40.1235C34.3191 40.2963 34.4825 40.5679 34.6926 40.7655C34.8794 40.9383 34.9961 41.284 34.9494 41.5062C34.8327 42 35.2996 42.5679 35.5798 42.2963C35.6732 42.1976 35.6732 42.321 35.5798 42.5926C35.4397 42.963 35.4864 43.0124 35.8132 42.8889C36.0467 42.7902 36.1634 42.8148 36.07 42.9877C35.9533 43.1852 38.8949 46.4198 41.463 48.9136C42.0934 49.5062 43.6342 50.6173 43.8444 50.6173C43.9377 50.6173 43.8444 50.5185 43.6576 50.3704C43.4708 50.2469 43.4008 50.0741 43.4942 49.9753C43.6809 49.7531 45.2918 50.9136 45.7588 51.605C45.9455 51.8766 46.3191 52.0988 46.6226 52.0988C46.9027 52.0988 47.4864 52.4445 47.9066 52.8642C48.9805 53.926 50.4047 54.9136 50.5914 54.7161C50.6848 54.642 50.3346 54.1976 49.821 53.7284C48.4202 52.4445 40.0623 43.4815 39.9455 43.1358C39.8988 42.963 38.8482 41.679 37.6109 40.2469C33.1051 35.0371 28.8327 29.4815 28.3424 28.2469C28.1556 27.8025 27.9222 27.3827 27.7821 27.284C27.3385 26.9877 27.5486 26.0247 28.179 25.4074C28.5058 25.0864 28.716 24.963 28.6226 25.1358C28.5292 25.284 28.6226 25.605 28.8093 25.8272C29.0195 26.0247 29.1829 26.0988 29.1829 25.9506C29.1829 25.3334 30.3502 23.7531 31.0973 23.3581C32.2646 22.7408 32.7782 22.3704 32.9883 22.0247C33.0817 21.8766 33.4086 21.7284 33.6654 21.7284C33.9455 21.7284 34.6693 21.284 35.2763 20.7408C35.8833 20.1976 36.7938 19.679 37.3074 19.5556C38.2412 19.3334 41.6498 16.9877 42.2802 16.1235C42.5837 15.7037 42.5837 15.7037 42.1868 16.0247C41.9066 16.2716 41.6965 16.2963 41.5331 16.1235C41.3463 15.926 41.3696 15.8025 41.5331 15.7037C41.6732 15.605 41.7899 15.3334 41.7899 15.0864C41.7899 14.5679 42.5603 14.1976 44.1012 13.9506C45.0584 13.7778 45.1051 13.8025 44.965 14.3457C44.8949 14.6667 44.8949 14.7902 44.965 14.6173C45.035 14.4692 45.2918 14.321 45.5253 14.321C45.7354 14.321 46.0623 14.1482 46.2257 13.9506C46.3891 13.7531 46.6459 13.5803 46.8093 13.5803C46.9728 13.5803 47.6031 13.284 48.1868 12.9383C49.0506 12.4198 49.3541 12.3457 49.5642 12.5679C49.7743 12.8148 49.6576 13.0371 49.0739 13.605C48.1401 14.4939 48.4903 14.5432 49.751 13.6544C50.2879 13.284 50.7549 13.0864 50.8482 13.2346C50.9416 13.3581 51.1984 13.605 51.4086 13.7778C51.7588 14.0741 51.8755 14.0494 52.2257 13.7037C52.9261 12.9383 53.5097 11.5556 53.6265 10.2716C53.7432 9.13583 53.6732 8.86423 53.0195 7.85188C51.9455 6.17287 51.3619 6.02472 50.2879 7.16052ZM38.9183 17.6544C38.1245 18.3951 37.821 18.4445 37.821 17.8025C37.821 17.3334 38.1946 17.1111 39.1051 17.0618C39.5253 17.0618 39.5019 17.1358 38.9183 17.6544ZM33.3852 20.4939C32.9416 20.8148 32.6848 20.8148 32.6848 20.4939C32.6848 20.3457 32.9183 20.2469 33.2218 20.2469C33.642 20.2469 33.6654 20.2963 33.3852 20.4939ZM31.5175 21.3581C31.3541 21.5556 31.0506 21.7284 30.8638 21.7284C30.5603 21.7284 30.5837 21.6544 30.9572 21.3581C31.5409 20.8889 31.8911 20.8889 31.5175 21.3581Z" fill="white"/>
<path d="M36.8872 22.4692C36.8872 22.5926 37.0039 22.7161 37.1206 22.7161C37.2607 22.7161 37.3541 22.5926 37.3541 22.4692C37.3541 22.321 37.2607 22.2222 37.1206 22.2222C37.0039 22.2222 36.8872 22.321 36.8872 22.4692Z" fill="white"/>
<path d="M32.3113 26.0494C32.0778 26.2469 31.9844 26.3951 32.1012 26.4198C32.4514 26.4198 33.035 25.9753 32.8949 25.8272C32.8249 25.7531 32.5681 25.8519 32.3113 26.0494Z" fill="white"/>
</svg>
